<?xml version="1.0" encoding="utf-8"?>
<!-- Generator: Adobe Illustrator 15.1.0, SVG Export Plug-In . SVG Version: 6.00 Build 0)  -->
<!DOCTYPE svg PUBLIC "-//W3C//DTD SVG 1.1//EN" "http://www.w3.org/Graphics/SVG/1.1/DTD/svg11.dtd">
<svg version="1.1" id="Layer_1" xmlns="http://www.w3.org/2000/svg" xmlns:xlink="http://www.w3.org/1999/xlink" x="0px" y="0px"
	 width="410px" height="337.692px" viewBox="0 0 410 337.692" enable-background="new 0 0 410 337.692" xml:space="preserve">
<g>
	<path fill="#FFFFFF" d="M137.584,110.996c4.949-11.383,23.754,6.928,29.693-12.372c5.938-19.301,103.029-21.471,103.029-21.471
		H146.575c-5.778,0-15.013,3.711-15.013,9.49l-4.453,39.021C127.109,125.665,132.635,122.378,137.584,110.996z"/>
	<path fill="#FFFFFF" d="M109.273,167.714c2.363,0.973,1.745-5.588,4.484-12.238c2.738-6.651,7.797-10.874,5.435-11.848
		c-2.363-0.973-10.238,2.09-12.978,8.741S106.91,166.741,109.273,167.714z"/>
	<path fill="#FFFFFF" d="M278.502,167.714c2.363,0.973,1.746-5.588,4.484-12.238c2.738-6.651,7.797-10.874,5.436-11.848
		c-2.363-0.973-10.238,2.09-12.979,8.741C272.705,159.021,276.139,166.741,278.502,167.714z"/>
	<path fill="#FFFFFF" d="M289.902,181.088c12.559,0,22.74-10.182,22.74-22.74s-10.182-22.739-22.74-22.739
		s-22.74,10.181-22.74,22.739c0,2.419,0.383,4.747,1.08,6.934l-0.305-0.307c0.211,0.732,0.455,1.456,0.742,2.164
		c0.373,0.936,0.805,1.849,1.289,2.736l0.881,0.881C274.908,176.975,281.924,181.088,289.902,181.088z M289.902,140.583
		c9.811,0,17.766,7.953,17.766,17.765c0,9.813-7.955,17.766-17.766,17.766s-17.766-7.953-17.766-17.766
		C272.137,148.536,280.092,140.583,289.902,140.583z"/>
	<path fill="#FFFFFF" d="M120.743,181.088c9.258,0,17.217-5.535,20.766-13.474l0.183,0.183c0.094-0.219,0.188-0.437,0.275-0.658
		c0.189-0.468,0.356-0.942,0.513-1.422l-0.167-0.168c0.755-2.264,1.171-4.683,1.171-7.201c0-12.559-10.181-22.739-22.74-22.739
		c-12.559,0-22.739,10.181-22.739,22.739S108.184,181.088,120.743,181.088z M120.743,140.583c9.813,0,17.766,7.953,17.766,17.765
		c0,9.813-7.953,17.766-17.766,17.766c-9.812,0-17.765-7.953-17.765-17.766C102.978,148.536,110.931,140.583,120.743,140.583z"/>
	<path fill="#FFFFFF" d="M120.76,134.301c3.113,0.153,6.221,0.941,9.009,2.258c2.81,1.297,5.3,3.172,7.382,5.382
		c2.097,2.205,3.704,4.826,4.815,7.617c0.681,1.686,1.151,3.452,1.412,5.248c1.861-2.656,3.917-5.189,6.203-7.533
		c4.694-4.866,10.415-8.77,16.577-11.518c6.169-2.766,12.724-4.423,19.281-5.407c3.284-0.493,6.578-0.82,9.869-1.029
		c1.555-0.092,3.108-0.154,4.661-0.197c0.082-0.188,0.196-0.366,0.351-0.521l3.236-3.236c0.657-0.657,1.722-0.657,2.379,0
		l3.236,3.236c0.154,0.154,0.27,0.333,0.352,0.522c5.119,0.138,10.254,0.507,15.369,1.272c6.553,0.99,13.113,2.624,19.258,5.43
		c6.146,2.77,11.813,6.71,16.504,11.551c2.424,2.485,4.592,5.184,6.537,8.021c0.238-1.997,0.732-3.969,1.488-5.839
		c1.109-2.793,2.717-5.414,4.813-7.62c4.121-4.466,10.098-7.349,16.41-7.649c2.52-0.126,5.088,0.145,7.566,0.821
		c-0.373-3.667-0.74-7.334-1.111-11.002l-4.418-43.995c-0.01-1.07-0.258-2.126-0.682-3.067c-0.434-0.979-1.023-1.85-1.688-2.627
		c-1.336-1.557-2.949-2.761-4.646-3.761c-1.703-0.994-3.514-1.78-5.402-2.353c-0.945-0.284-1.912-0.514-2.904-0.667
		c-0.977-0.161-2.055-0.208-2.982-0.197l-22.492-0.07l-22.494-0.02c-7.498-0.003-14.996,0.008-22.494,0.044l-44.987,0.164
		L138.673,67.7l-0.703,0.005c-0.254,0.003-0.506,0.011-0.757,0.026c-0.501,0.031-0.996,0.088-1.485,0.163
		c-0.979,0.15-1.934,0.377-2.869,0.658c-1.869,0.563-3.659,1.348-5.342,2.336c-1.675,0.993-3.26,2.189-4.569,3.711
		c-0.651,0.761-1.228,1.61-1.648,2.559c-0.413,0.919-0.654,1.944-0.66,2.979l-2.308,21.985c-0.78,7.329-1.528,14.663-2.359,21.987
		l-1.179,10.626C116.759,134.345,118.763,134.202,120.76,134.301z M126.948,83.081c0-5.955,9.514-9.778,15.468-9.778h127.477
		c5.955,0,15.469,3.824,15.469,9.778l5.641,49.44l-0.123-0.522c0-3.052-10.178-5.525-16.547-5.525H247.91
		c1.875,1.185,3.668,2.493,5.348,3.929c4.346,3.729,7.979,8.172,10.73,13.049c-3.66-4.231-7.676-8.076-12.221-11.09
		c-4.514-3.047-9.461-5.309-14.625-6.86c-5.168-1.556-10.529-2.463-15.951-2.979c-2.713-0.256-5.441-0.438-8.182-0.525
		c-2.738-0.109-5.486-0.146-8.243-0.134c-2.751-0.007-5.5,0.049-8.236,0.168c-2.737,0.104-5.463,0.304-8.172,0.578
		c-5.414,0.56-10.764,1.517-15.905,3.145c-5.14,1.62-10.048,3.967-14.512,7.089c-4.492,3.092-8.45,6.998-12.056,11.276
		c2.695-4.908,6.259-9.403,10.541-13.201c1.854-1.64,3.858-3.116,5.963-4.444h-24.414c-6.368,0-16.545,2.474-16.545,5.525
		l-0.125,0.521L126.948,83.081z"/>
	<path fill="#FFFFFF" d="M120.956,240.975l0.097-1.201c0.394-4.896,0.882-9.787,1.451-14.672c-6.497-1.498-12.66-3.186-18.419-5.055
		c-4.464-1.447-6.908-6.24-5.46-10.704c1.449-4.464,6.242-6.908,10.705-5.459c4.868,1.58,10.059,3.02,15.517,4.318
		c0.393-2.372,0.818-4.74,1.286-7.103c1.258-6.4,2.754-12.771,4.657-19.056c0.295-0.978,0.605-1.952,0.923-2.925
		c-3.288,1.926-7.063,3.103-10.97,3.288c-3.144,0.157-6.365-0.291-9.389-1.394c-3.013-1.113-5.854-2.809-8.223-5.055
		c-2.355-2.246-4.326-4.954-5.62-7.987c-0.645-1.516-1.14-3.097-1.474-4.712c-0.168-0.808-0.296-1.623-0.383-2.443
		c-0.044-0.41-0.076-0.821-0.102-1.233l-0.028-0.617l-0.008-0.649l0.012-0.558l0.029-0.644c0.024-0.417,0.058-0.824,0.101-1.235
		c0.088-0.82,0.216-1.636,0.383-2.443c0.334-1.614,0.829-3.196,1.474-4.711c0.187-0.434,0.392-0.858,0.604-1.278
		c-11.996-2.746-22.464-3.328-26.47-3.328c-4.063,0-5.77,0-5.77,0c-6.369,0-11.531,5.163-11.531,11.531v72.754l0.053,0.018
		l11.75,3.996l11.717,4.09l5.857,2.047l5.843,2.092l-0.098,0.285c-4.258-0.342-8.351-1.164-12.383-2.158
		c-3.238-0.771-6.421-1.703-9.57-2.73v22.768c0,6.369,4.178,11.531,9.332,11.531h18.636c5.153,0,9.332-5.162,9.332-11.531v-12.6
		l18.058,6.309l5.519-11.539l-6.271-0.004L120.956,240.975z"/>
	<path fill="#FFFFFF" d="M344.119,144.119c0,0-1.707,0-5.77,0c-3.939,0-14.133,0.565-25.883,3.197
		c0.238,0.462,0.463,0.93,0.668,1.407c1.291,3.03,1.977,6.327,1.994,9.624c-0.027,3.296-0.705,6.593-1.998,9.622
		c-1.307,3.027-3.268,5.738-5.623,7.982c-2.373,2.237-5.209,3.938-8.221,5.05c-3.023,1.099-6.24,1.551-9.385,1.394
		c-4.191-0.198-8.234-1.541-11.686-3.725c0.379,1.146,0.748,2.295,1.098,3.448c1.914,6.27,3.35,12.648,4.584,19.045
		c0.41,2.147,0.783,4.3,1.141,6.453c4.584-1.143,8.971-2.387,13.119-3.733c4.467-1.449,9.258,0.995,10.705,5.459
		c1.449,4.464-0.994,9.257-5.459,10.704c-5.051,1.641-10.414,3.141-16.039,4.494c0.574,5.088,1.068,10.182,1.453,15.281l0.051,0.678
		l-0.656,0.004l-7.996,0.051l5.393,11.965l20.537-6.916v13.207c0,6.369,4.178,11.531,9.332,11.531h18.637
		c5.152,0,9.332-5.162,9.332-11.531v-22.895c-2.061,0.635-4.137,1.223-6.238,1.74c-4.025,1.027-8.109,1.885-12.361,2.27
		l-0.102-0.285l5.826-2.139l5.84-2.096l11.682-4.189l7.557-2.643V155.65C355.65,149.282,350.488,144.119,344.119,144.119z"/>
	<path fill="#FFFFFF" d="M227.059,135.569l49.572,49.572c-0.209-0.659-0.418-1.317-0.633-1.974
		c-1.088-3.292-2.293-6.541-3.641-9.718c-0.906-1.117-1.701-2.318-2.389-3.575l-31.234-31.234
		C234.965,137.284,231.049,136.281,227.059,135.569z"/>
	<path fill="#FFFFFF" d="M257.586,150.41c-4.053-4.055-8.799-7.34-13.98-9.767l24.332,24.331c-0.109-0.373-0.211-0.748-0.301-1.126
		C264.832,158.938,261.537,154.343,257.586,150.41z"/>
	<path fill="#FFFFFF" d="M214.152,134.135l66.736,66.739c-0.896-3.907-1.898-7.785-3.014-11.621l-54.225-54.225
		C220.51,134.593,217.34,134.307,214.152,134.135z"/>
	<path fill="#FFFFFF" d="M161.693,184.932l31.166,31.166c-0.988-0.026-1.974-0.059-2.957-0.09l-29.643-29.643l-18.568-18.568
		c-0.827,1.922-1.898,3.747-3.203,5.401l17.47,17.469l-0.001,0.001l24.944,24.944c-1.015-0.056-2.031-0.11-3.04-0.173
		l-23.338-23.338l-16.976-16.976c-0.83,2.064-1.607,4.156-2.338,6.267l15.012,15.012l18.345,18.344
		c-1.061-0.091-2.111-0.193-3.163-0.294l-16.616-16.616l0,0l-14.304-14.303c-0.714,2.182-1.382,4.381-2.007,6.597l12.009,12.008l0,0
		l11.265,11.265c-1.103-0.135-2.199-0.275-3.289-0.42l-9.41-9.409v-0.001l-11.192-11.192c-0.613,2.282-1.184,4.578-1.721,6.885
		l8.61,8.61l3.604,3.603c-1.162-0.192-2.316-0.389-3.462-0.594l-1.575-1.574v-0.001l-7.709-7.708
		c-0.016,0.07-0.032,0.141-0.048,0.212c-0.503,2.296-0.975,4.603-1.432,6.912l0.035,0.035c-0.014-0.003-0.027-0.006-0.041-0.009
		c-0.013,0.065-0.025,0.129-0.039,0.193c22.023,4.916,48.174,7.563,75.664,7.563c28.773,0,56.082-2.9,78.722-8.267
		c-0.248-1.231-0.504-2.462-0.766-3.69l-70.498-70.498l0.684,0.684l-0.732-0.732c-0.842-0.027-1.684-0.051-2.525-0.065l-0.953,5.192
		l70.037,70.037c-0.787,0.167-1.576,0.334-2.373,0.495l-68.107-68.108l-1.296,7.073c-0.041,0.04-0.087,0.07-0.13,0.105l62.29,62.289
		c-0.814,0.142-1.621,0.288-2.443,0.425l-65.238-65.238l-11.427-11.426c-0.948,0.109-1.895,0.228-2.838,0.365
		c-1.545,0.224-3.082,0.486-4.608,0.793l14.57,14.569l62.076,62.077c-0.838,0.118-1.67,0.24-2.514,0.354l-60.997-60.996l0,0
		l-15.493-15.493c-2.267,0.528-4.5,1.163-6.684,1.92l17.875,17.875L248,213.873c-0.859,0.096-1.719,0.193-2.586,0.283
		l-56.473-56.473h0.001l-18.538-18.537c-0.776,0.302-1.547,0.619-2.309,0.956c-1.219,0.538-2.409,1.131-3.58,1.76l20.124,20.123
		v0.001l52.898,52.896c-0.885,0.072-1.768,0.145-2.656,0.212l-51.676-51.675l-20.521-20.521c-0.913,0.542-1.816,1.102-2.692,1.701
		c-0.827,0.568-1.631,1.17-2.424,1.786l21.336,21.336v0.001l47.894,47.895c-0.906,0.049-1.816,0.097-2.727,0.141l-46.602-46.602
		l-21.489-21.489c-1.075,0.906-2.119,1.852-3.118,2.847c-0.441,0.438-0.872,0.888-1.297,1.342l21.603,21.603l42.613,42.614
		c-0.932,0.025-1.867,0.047-2.803,0.066l-41.245-41.246l0,0l-21.526-21.526c-1.334,1.541-2.587,3.16-3.763,4.842l20.987,20.986
		l37.044,37.044c-0.197,0-0.392,0.004-0.588,0.004c-0.767,0-1.527-0.01-2.291-0.014l-35.6-35.6l0,0l-20.709-20.71
		c-0.771,1.18-1.508,2.385-2.21,3.612c-0.163,0.737-0.364,1.466-0.598,2.186L161.693,184.932L161.693,184.932z"/>
	<path fill="#FFFFFF" d="M203.076,146.004l-1.932-10.536l-1.449-1.449c-1.364,0.047-2.728,0.105-4.086,0.191
		c-1.344,0.079-2.684,0.184-4.021,0.307l10.26,10.26l0,0L203.076,146.004z"/>
	<path fill="#FFFFFF" d="M123.424,238.445l0.395,0.393l8.829,0.227l-8.204-8.205C124.092,233.385,123.751,235.914,123.424,238.445z"
		/>
	<path fill="#FFFFFF" d="M182.645,240.301h8.604l-7.249-7.25c-3.066-0.139-6.106-0.314-9.123-0.518L182.645,240.301z"/>
	<path fill="#FFFFFF" d="M170.934,240.063l8.549,0.238h0.293l-7.985-7.986c-3.175-0.238-6.32-0.512-9.427-0.822L170.934,240.063z"/>
	<path fill="#FFFFFF" d="M135.725,227.799l11.64,11.641l8.829,0.225l-10.188-10.188
		C142.514,228.963,139.085,228.404,135.725,227.799z"/>
	<path fill="#FFFFFF" d="M125.18,225.703c-0.133,0.881-0.251,1.766-0.378,2.646l10.789,10.789l8.829,0.225l-12.224-12.223
		C129.824,226.682,127.476,226.207,125.18,225.703z"/>
	<path fill="#FFFFFF" d="M149.349,229.951l9.789,9.789l1.446,0.037l7.399,0.205l-8.83-8.832
		C155.839,230.791,152.57,230.391,149.349,229.951z"/>
	<path fill="#FFFFFF" d="M240.008,240.301h8.605l-8.359-8.359c-2.641,0.23-5.303,0.436-7.988,0.615L240.008,240.301z"/>
	<path fill="#FFFFFF" d="M253.238,230.584l9.361,9.363l8.381-0.223l-10.15-10.152C258.33,229.934,255.799,230.271,253.238,230.584z"
		/>
	<path fill="#FFFFFF" d="M242.885,231.703l8.539,8.539l8.383-0.221l-9.133-9.133C248.104,231.186,245.506,231.457,242.885,231.703z"
		/>
	<path fill="#FFFFFF" d="M228.535,240.301h8.604l-7.572-7.572c-2.709,0.164-5.439,0.303-8.189,0.414L228.535,240.301z"/>
	<path fill="#FFFFFF" d="M194.117,240.301h8.605l-6.875-6.875c-2.968-0.053-5.92-0.135-8.852-0.246L194.117,240.301z"/>
	<path fill="#FFFFFF" d="M217.063,240.301h8.604l-7.055-7.057c-2.783,0.096-5.582,0.166-8.396,0.207L217.063,240.301z"/>
	<path fill="#FFFFFF" d="M273.775,239.65l8.383-0.223L270.729,228c0.816-0.143,1.633-0.283,2.439-0.43l11.783,11.783l2.549-0.066
		c-0.305-2.316-0.621-4.629-0.949-6.939l-6.184-6.184c0.791-0.166,1.582-0.33,2.367-0.5l3.316,3.316
		c-0.199-1.33-0.389-2.662-0.598-3.988c-7.047,1.639-14.502,3.049-22.266,4.229c0.047-0.006,0.094-0.012,0.139-0.02L273.775,239.65z
		"/>
	<path fill="#FFFFFF" d="M198.763,233.475l6.827,6.826h8.603l-6.818-6.82c-1.209,0.012-2.417,0.023-3.63,0.023
		C202.08,233.504,200.419,233.492,198.763,233.475z"/>
	<polygon fill="#FFFFFF" points="207.658,139.113 207.213,141.537 207.232,141.557 207.676,139.133 	"/>
	<polygon fill="#FFFFFF" points="282.174,239.445 284.969,239.371 284.951,239.354 282.158,239.428 	"/>
	<path fill="#FFFFFF" d="M260.82,229.563l0.01,0.01c0.789-0.113,1.574-0.232,2.357-0.352
		C262.402,229.338,261.611,229.451,260.82,229.563z"/>
	<polygon fill="#FFFFFF" points="270.98,239.725 270.998,239.74 273.793,239.668 273.775,239.65 	"/>
	<path fill="#FFFFFF" d="M253.219,230.566c-0.854,0.102-1.715,0.197-2.572,0.295l0.027,0.027c0.857-0.098,1.713-0.199,2.564-0.305
		L253.219,230.566z"/>
	<polygon fill="#FFFFFF" points="259.822,240.037 262.615,239.963 262.6,239.947 259.807,240.021 	"/>
	<path fill="#FFFFFF" d="M240.211,231.898l0.043,0.043c0.879-0.076,1.756-0.156,2.631-0.238l-0.037-0.037
		C241.973,231.748,241.09,231.822,240.211,231.898z"/>
	<polygon fill="#FFFFFF" points="249.906,240.301 251.439,240.26 251.424,240.242 249.252,240.301 	"/>
	<path fill="#FFFFFF" d="M229.51,232.672l0.057,0.057c0.902-0.055,1.803-0.111,2.699-0.172l-0.051-0.051
		C231.316,232.564,230.412,232.617,229.51,232.672z"/>
	<path fill="#FFFFFF" d="M218.543,233.178l0.068,0.066c0.924-0.031,1.846-0.064,2.766-0.102l-0.063-0.063
		C220.395,233.115,219.469,233.146,218.543,233.178z"/>
	<path fill="#FFFFFF" d="M207.299,233.406l0.076,0.074c0.947-0.008,1.895-0.016,2.84-0.029l-0.072-0.07
		C209.197,233.395,208.248,233.398,207.299,233.406z"/>
	<path fill="#FFFFFF" d="M195.767,233.346l0.08,0.08c0.971,0.018,1.941,0.037,2.916,0.049l-0.078-0.078
		C197.709,233.385,196.74,233.363,195.767,233.346z"/>
	<path fill="#FFFFFF" d="M183.917,232.969l0.082,0.082c0.996,0.047,1.995,0.09,2.996,0.129l-0.082-0.082
		C185.913,233.059,184.915,233.016,183.917,232.969z"/>
	<path fill="#FFFFFF" d="M171.711,232.236l0.079,0.078c1.024,0.078,2.056,0.148,3.086,0.219l-0.08-0.082
		C173.766,232.383,172.735,232.313,171.711,232.236z"/>
	<path fill="#FFFFFF" d="M162.29,231.418c-1.076-0.107-2.142-0.225-3.208-0.34l0.072,0.072c1.067,0.117,2.134,0.234,3.21,0.342
		L162.29,231.418z"/>
	<polygon fill="#FFFFFF" points="167.988,239.986 170.938,240.066 170.934,240.063 167.984,239.982 	"/>
	<polygon fill="#FFFFFF" points="144.423,239.367 147.368,239.441 147.365,239.439 144.42,239.363 	"/>
	<path fill="#FFFFFF" d="M135.689,227.762c-1.18-0.209-2.354-0.424-3.516-0.645l0.023,0.023c1.168,0.225,2.343,0.443,3.528,0.658
		L135.689,227.762z"/>
	<path fill="#FFFFFF" d="M149.288,229.889c-1.118-0.152-2.23-0.307-3.336-0.467l0.055,0.055c1.108,0.162,2.222,0.322,3.343,0.475
		L149.288,229.889z"/>
	<polygon fill="#FFFFFF" points="156.198,239.668 159.141,239.742 159.138,239.74 156.194,239.664 	"/>
	<polygon fill="#FFFFFF" points="132.651,239.066 135.594,239.143 135.591,239.139 132.648,239.064 	"/>
</g>
</svg>
