<?xml version="1.0" encoding="utf-8"?>
<!-- Generator: Adobe Illustrator 15.1.0, SVG Export Plug-In . SVG Version: 6.00 Build 0)  -->
<!DOCTYPE svg PUBLIC "-//W3C//DTD SVG 1.1//EN" "http://www.w3.org/Graphics/SVG/1.1/DTD/svg11.dtd">
<svg version="1.1" id="Layer_1" xmlns="http://www.w3.org/2000/svg" xmlns:xlink="http://www.w3.org/1999/xlink" x="0px" y="0px"
	 width="410px" height="337.692px" viewBox="0 0 410 337.692" enable-background="new 0 0 410 337.692" xml:space="preserve">
<g>
	<g>
		<path fill="#FFFFFF" d="M70.213,284.274l-4.321,0.346v11.885h-5.056v-29.903h5.056v13.137l4.235-0.346l5.791-12.791h5.834
			l-7.087,14.907l7.389,14.996h-5.92L70.213,284.274z"/>
		<path fill="#FFFFFF" d="M100.694,286.306H94.04v10.198h-5.056v-29.903h11.279c6.828,0,10.112,2.81,10.112,9.637
			c0,4.494-1.642,7.089-4.71,8.601l4.71,11.668H104.8L100.694,286.306z M100.262,271.44H94.04v10.025h6.309
			c3.5,0,4.797-2.074,4.797-5.144C105.146,273.04,103.546,271.44,100.262,271.44z"/>
		<path fill="#FFFFFF" d="M123.717,266.601h9.982l7.043,29.903h-5.099l-1.642-5.877h-10.846l-1.47,5.877h-5.099L123.717,266.601z
			 M124.235,285.745h8.772l-3.328-14.477h-2.031L124.235,285.745z"/>
		<path fill="#FFFFFF" d="M147.612,266.601h18.668v4.84h-13.655v9.638h11.063v4.797h-11.063v10.631h-5.013V266.601z"/>
		<path fill="#FFFFFF" d="M170.86,266.601h21.606v4.883h-8.21v25.021h-5.099v-25.021h-8.297V266.601z"/>
		<path fill="#FFFFFF" d="M202.988,266.601l4.84,24.719h0.863l4.928-24.632h5.746l5.014,24.632h0.82l4.797-24.719h5.314
			l-6.568,29.903h-7.906l-4.365-22.385l-4.277,22.385h-7.907l-6.612-29.903H202.988z"/>
		<path fill="#FFFFFF" d="M245.893,266.601h9.982l7.043,29.903h-5.1l-1.642-5.877H245.33l-1.469,5.877h-5.101L245.893,266.601z
			 M246.41,285.745h8.773l-3.328-14.477h-2.031L246.41,285.745z"/>
		<path fill="#FFFFFF" d="M281.234,280.861h8.428v15.124c0,0-6.137,0.994-9.896,0.994c-9.248,0-11.883-5.531-11.883-15.471
			c0-10.457,2.895-15.383,11.711-15.383c4.537,0,10.068,1.209,10.068,1.209l-0.131,4.408c0,0-5.271-0.691-9.203-0.691
			c-5.705,0-7.217,2.55-7.217,10.457c0,7.693,1.209,10.545,7.086,10.545c2.031,0,4.408-0.303,4.451-0.303v-6.353h-3.414V280.861
			L281.234,280.861z"/>
		<path fill="#FFFFFF" d="M297.971,266.601h18.668v4.84h-13.654v7.822h11.063v4.754h-11.063v7.647h13.654v4.84h-18.668V266.601z"/>
		<path fill="#FFFFFF" d="M324.416,266.601h8.211l9.506,23.595h0.734v-23.595h5.1v29.903h-7.994l-9.766-23.594h-0.734v23.594h-5.057
			V266.601L324.416,266.601z"/>
	</g>
	<g>
		<path fill="#FFFFFF" d="M137.584,83.814c4.949-11.382,23.754,6.928,29.693-12.372c5.938-19.3,103.03-21.47,103.03-21.47H146.575
			c-5.778,0-15.013,3.711-15.013,9.49l-4.453,39.021C127.109,98.483,132.635,95.196,137.584,83.814z"/>
		<path fill="#FFFFFF" d="M109.273,140.532c2.363,0.973,1.745-5.587,4.484-12.238c2.738-6.651,7.797-10.875,5.435-11.848
			c-2.363-0.973-10.238,2.09-12.978,8.741C103.475,131.838,106.91,139.559,109.273,140.532z"/>
		<path fill="#FFFFFF" d="M278.502,140.532c2.363,0.973,1.746-5.587,4.484-12.238s7.797-10.875,5.436-11.848
			c-2.363-0.973-10.238,2.09-12.979,8.741C272.705,131.838,276.139,139.559,278.502,140.532z"/>
		<path fill="#FFFFFF" d="M289.902,153.906c12.559,0,22.74-10.181,22.74-22.74s-10.183-22.739-22.74-22.739
			c-12.559,0-22.74,10.181-22.74,22.739c0,2.418,0.383,4.747,1.08,6.933l-0.305-0.307c0.211,0.733,0.455,1.457,0.742,2.165
			c0.372,0.935,0.805,1.849,1.288,2.736l0.882,0.881C274.908,149.792,281.924,153.906,289.902,153.906z M289.902,113.401
			c9.811,0,17.766,7.954,17.766,17.765c0,9.812-7.955,17.766-17.766,17.766c-9.812,0-17.766-7.954-17.766-17.766
			S280.092,113.401,289.902,113.401z"/>
		<path fill="#FFFFFF" d="M120.743,153.906c9.258,0,17.217-5.535,20.766-13.473l0.183,0.183c0.094-0.219,0.188-0.437,0.275-0.658
			c0.189-0.468,0.356-0.943,0.513-1.422l-0.167-0.167c0.755-2.264,1.171-4.683,1.171-7.201c0-12.559-10.181-22.739-22.74-22.739
			c-12.559,0-22.739,10.181-22.739,22.739S108.184,153.906,120.743,153.906z M120.743,113.401c9.813,0,17.766,7.954,17.766,17.765
			c0,9.812-7.953,17.766-17.766,17.766c-9.812,0-17.765-7.954-17.765-17.766S110.931,113.401,120.743,113.401z"/>
		<path fill="#FFFFFF" d="M120.76,107.119c3.113,0.154,6.221,0.941,9.009,2.258c2.81,1.297,5.3,3.172,7.382,5.382
			c2.097,2.205,3.704,4.826,4.815,7.617c0.681,1.686,1.151,3.453,1.412,5.248c1.861-2.656,3.917-5.189,6.203-7.533
			c4.694-4.867,10.415-8.77,16.577-11.518c6.169-2.766,12.724-4.422,19.281-5.407c3.284-0.493,6.578-0.82,9.869-1.029
			c1.555-0.091,3.108-0.154,4.661-0.197c0.082-0.188,0.196-0.367,0.351-0.521l3.236-3.236c0.657-0.657,1.722-0.657,2.379,0
			l3.235,3.236c0.154,0.155,0.271,0.333,0.353,0.523c5.119,0.137,10.254,0.507,15.369,1.272c6.553,0.99,13.112,2.624,19.258,5.43
			c6.146,2.769,11.813,6.709,16.504,11.551c2.424,2.485,4.592,5.184,6.537,8.021c0.238-1.998,0.731-3.969,1.488-5.839
			c1.108-2.792,2.717-5.414,4.813-7.62c4.121-4.466,10.098-7.349,16.41-7.649c2.52-0.126,5.088,0.145,7.565,0.821
			c-0.372-3.667-0.739-7.334-1.11-11.002l-4.418-43.996c-0.01-1.07-0.258-2.126-0.683-3.067c-0.434-0.979-1.022-1.85-1.688-2.627
			c-1.336-1.557-2.948-2.761-4.646-3.761c-1.702-0.994-3.514-1.78-5.401-2.353c-0.945-0.284-1.912-0.513-2.904-0.667
			c-0.977-0.162-2.055-0.208-2.982-0.197l-22.492-0.07l-22.494-0.02c-7.498-0.003-14.996,0.008-22.494,0.043l-44.986,0.164
			l-22.494,0.142l-0.703,0.004c-0.254,0.003-0.506,0.011-0.757,0.027c-0.501,0.031-0.996,0.087-1.485,0.163
			c-0.979,0.15-1.934,0.377-2.869,0.658c-1.869,0.563-3.659,1.348-5.342,2.336c-1.675,0.994-3.26,2.19-4.569,3.711
			c-0.651,0.761-1.228,1.61-1.648,2.559c-0.413,0.919-0.654,1.944-0.66,2.979l-2.308,21.985c-0.78,7.33-1.528,14.663-2.359,21.987
			l-1.179,10.626C116.759,107.163,118.763,107.02,120.76,107.119z M126.948,55.899c0-5.955,9.514-9.778,15.468-9.778h127.477
			c5.955,0,15.469,3.824,15.469,9.778l5.642,49.441l-0.123-0.523c0-3.052-10.178-5.525-16.547-5.525H247.91
			c1.875,1.185,3.668,2.493,5.348,3.929c4.346,3.729,7.979,8.171,10.73,13.048c-3.66-4.231-7.676-8.076-12.221-11.089
			c-4.515-3.047-9.461-5.309-14.625-6.86c-5.168-1.556-10.529-2.463-15.951-2.979c-2.713-0.256-5.441-0.438-8.183-0.526
			c-2.737-0.109-5.485-0.146-8.243-0.133c-2.751-0.007-5.5,0.049-8.236,0.168c-2.737,0.103-5.463,0.304-8.172,0.578
			c-5.414,0.559-10.764,1.516-15.905,3.146c-5.14,1.62-10.048,3.967-14.512,7.088c-4.492,3.092-8.45,6.998-12.056,11.277
			c2.695-4.909,6.259-9.403,10.541-13.202c1.854-1.64,3.858-3.116,5.963-4.444h-24.414c-6.368,0-16.545,2.474-16.545,5.525
			l-0.125,0.521L126.948,55.899z"/>
		<path fill="#FFFFFF" d="M120.956,213.793l0.097-1.201c0.394-4.896,0.882-9.787,1.451-14.672
			c-6.497-1.498-12.66-3.187-18.419-5.055c-4.464-1.447-6.908-6.24-5.46-10.705c1.449-4.463,6.242-6.908,10.705-5.459
			c4.868,1.58,10.059,3.021,15.517,4.318c0.393-2.372,0.818-4.74,1.286-7.102c1.258-6.4,2.754-12.772,4.657-19.057
			c0.295-0.978,0.605-1.952,0.923-2.925c-3.288,1.926-7.063,3.103-10.97,3.288c-3.144,0.157-6.365-0.291-9.389-1.394
			c-3.013-1.113-5.854-2.809-8.223-5.055c-2.355-2.247-4.326-4.954-5.62-7.987c-0.645-1.516-1.14-3.097-1.474-4.712
			c-0.168-0.808-0.296-1.624-0.383-2.444c-0.044-0.41-0.076-0.821-0.102-1.233l-0.028-0.617l-0.008-0.65l0.012-0.558l0.029-0.643
			c0.024-0.417,0.058-0.824,0.101-1.235c0.088-0.82,0.216-1.636,0.383-2.443c0.334-1.615,0.829-3.196,1.474-4.711
			c0.187-0.434,0.392-0.858,0.604-1.279c-11.996-2.746-22.464-3.328-26.47-3.328c-4.063,0-5.77,0-5.77,0
			c-6.369,0-11.531,5.163-11.531,11.531v72.754l0.053,0.018l11.75,3.996l11.717,4.09l5.857,2.047l5.843,2.092l-0.098,0.285
			c-4.258-0.342-8.351-1.164-12.383-2.158c-3.238-0.771-6.421-1.702-9.57-2.729v22.769c0,6.369,4.178,11.531,9.332,11.531h18.636
			c5.153,0,9.332-5.162,9.332-11.531v-12.601l18.058,6.31l5.519-11.539l-6.271-0.004L120.956,213.793z"/>
		<path fill="#FFFFFF" d="M344.119,116.938c0,0-1.707,0-5.77,0c-3.939,0-14.134,0.565-25.884,3.197
			c0.238,0.462,0.464,0.929,0.668,1.407c1.291,3.03,1.978,6.327,1.994,9.624c-0.026,3.296-0.705,6.593-1.998,9.622
			c-1.307,3.027-3.269,5.738-5.623,7.982c-2.373,2.237-5.209,3.938-8.221,5.05c-3.022,1.098-6.24,1.55-9.386,1.393
			c-4.19-0.198-8.233-1.541-11.686-3.725c0.379,1.146,0.748,2.295,1.098,3.448c1.914,6.27,3.351,12.649,4.584,19.045
			c0.41,2.146,0.783,4.299,1.142,6.453c4.584-1.143,8.971-2.387,13.119-3.734c4.467-1.449,9.258,0.996,10.704,5.459
			c1.449,4.465-0.993,9.258-5.459,10.704c-5.051,1.642-10.414,3.142-16.039,4.494c0.574,5.088,1.068,10.183,1.453,15.281
			l0.052,0.678l-0.656,0.004l-7.996,0.052l5.394,11.965l20.537-6.916v13.207c0,6.369,4.178,11.531,9.332,11.531h18.637
			c5.152,0,9.332-5.162,9.332-11.531v-22.896c-2.062,0.636-4.137,1.224-6.238,1.74c-4.025,1.026-8.109,1.885-12.361,2.271
			l-0.102-0.285l5.826-2.14l5.84-2.096l11.682-4.188l7.557-2.644v-72.924C355.65,122.1,350.488,116.938,344.119,116.938z"/>
		<path fill="#FFFFFF" d="M227.059,108.387l49.572,49.573c-0.209-0.659-0.418-1.317-0.633-1.974
			c-1.088-3.292-2.293-6.542-3.641-9.718c-0.906-1.118-1.701-2.319-2.39-3.576l-31.233-31.234
			C234.965,110.102,231.049,109.099,227.059,108.387z"/>
		<path fill="#FFFFFF" d="M257.586,123.228c-4.053-4.054-8.799-7.34-13.98-9.766l24.332,24.331
			c-0.108-0.373-0.211-0.748-0.301-1.125C264.832,131.757,261.537,127.161,257.586,123.228z"/>
		<path fill="#FFFFFF" d="M214.152,106.953l66.736,66.739c-0.896-3.906-1.898-7.785-3.015-11.621l-54.226-54.225
			C220.51,107.411,217.34,107.125,214.152,106.953z"/>
		<path fill="#FFFFFF" d="M161.693,157.75l31.166,31.167c-0.988-0.025-1.974-0.059-2.957-0.09l-29.643-29.643l-18.568-18.568
			c-0.827,1.921-1.898,3.747-3.203,5.401l17.47,17.469h-0.001l24.944,24.945c-1.015-0.056-2.031-0.11-3.04-0.173l-23.338-23.338
			l-16.976-16.976c-0.83,2.065-1.607,4.156-2.338,6.267l15.012,15.012l18.345,18.344c-1.061-0.091-2.111-0.193-3.163-0.294
			l-16.616-16.616l0,0l-14.304-14.303c-0.714,2.182-1.382,4.381-2.007,6.597l12.009,12.008l0,0l11.265,11.265
			c-1.103-0.136-2.199-0.274-3.289-0.421l-9.41-9.409l0,0L131.858,165.2c-0.613,2.282-1.184,4.578-1.721,6.884l8.61,8.61
			l3.604,3.603c-1.162-0.191-2.316-0.389-3.462-0.594l-1.575-1.574l0,0l-7.709-7.709c-0.016,0.072-0.032,0.142-0.048,0.213
			c-0.503,2.296-0.975,4.603-1.432,6.912l0.035,0.035c-0.014-0.002-0.027-0.006-0.041-0.008c-0.013,0.064-0.025,0.129-0.039,0.192
			c22.023,4.916,48.174,7.563,75.664,7.563c28.773,0,56.082-2.9,78.722-8.268c-0.248-1.232-0.504-2.462-0.766-3.689l-70.498-70.499
			l0.685,0.683l-0.732-0.732c-0.842-0.027-1.684-0.051-2.525-0.065l-0.953,5.193l70.037,70.037
			c-0.787,0.168-1.576,0.334-2.373,0.495l-68.107-68.108l-1.295,7.073c-0.041,0.04-0.088,0.07-0.131,0.105l62.291,62.288
			c-0.814,0.143-1.621,0.289-2.443,0.426l-65.238-65.239l-11.427-11.426c-0.948,0.11-1.896,0.228-2.838,0.365
			c-1.545,0.224-3.082,0.487-4.608,0.793l14.57,14.57l62.077,62.078c-0.838,0.117-1.67,0.239-2.515,0.354l-60.997-60.996l0,0
			l-15.493-15.494c-2.267,0.529-4.5,1.164-6.684,1.92l17.875,17.875L248,186.691c-0.859,0.097-1.719,0.192-2.586,0.283
			l-56.473-56.473h0.001l-18.538-18.537c-0.776,0.302-1.547,0.619-2.309,0.956c-1.219,0.538-2.409,1.131-3.58,1.76l20.124,20.124
			l0,0l52.898,52.897c-0.885,0.071-1.768,0.145-2.656,0.211l-51.676-51.674l-20.521-20.521c-0.913,0.542-1.816,1.101-2.692,1.701
			c-0.827,0.569-1.631,1.17-2.424,1.787l21.336,21.336l0,0l47.894,47.895c-0.905,0.049-1.815,0.098-2.728,0.141l-46.602-46.602
			l-21.489-21.489c-1.075,0.906-2.119,1.852-3.118,2.846c-0.441,0.439-0.872,0.888-1.297,1.342l21.603,21.603l42.613,42.614
			c-0.932,0.025-1.867,0.047-2.803,0.066l-41.246-41.247l0,0l-21.526-21.526c-1.334,1.541-2.587,3.16-3.763,4.842l20.987,20.986
			l37.044,37.044c-0.197,0-0.392,0.004-0.588,0.004c-0.767,0-1.527-0.01-2.291-0.014l-35.6-35.6l0,0l-20.709-20.71
			c-0.771,1.179-1.508,2.384-2.21,3.612c-0.163,0.738-0.364,1.466-0.598,2.186L161.693,157.75L161.693,157.75z"/>
		<path fill="#FFFFFF" d="M203.076,118.822l-1.932-10.536l-1.449-1.45c-1.364,0.047-2.728,0.105-4.086,0.192
			c-1.344,0.079-2.684,0.184-4.021,0.306l10.26,10.26l0,0L203.076,118.822z"/>
		<path fill="#FFFFFF" d="M123.424,211.264l0.395,0.393l8.829,0.227l-8.204-8.204C124.092,206.204,123.751,208.732,123.424,211.264z
			"/>
		<path fill="#FFFFFF" d="M182.645,213.12h8.604L184,205.87c-3.066-0.14-6.106-0.314-9.123-0.519L182.645,213.12z"/>
		<path fill="#FFFFFF" d="M170.934,212.881l8.549,0.238h0.293l-7.985-7.986c-3.175-0.238-6.32-0.512-9.427-0.822L170.934,212.881z"
			/>
		<path fill="#FFFFFF" d="M135.725,200.618l11.64,11.641l8.829,0.225l-10.188-10.188
			C142.514,201.782,139.085,201.223,135.725,200.618z"/>
		<path fill="#FFFFFF" d="M125.18,198.521c-0.133,0.881-0.251,1.767-0.378,2.646l10.789,10.789l8.829,0.226l-12.224-12.224
			C129.824,199.5,127.476,199.025,125.18,198.521z"/>
		<path fill="#FFFFFF" d="M149.349,202.77l9.789,9.789l1.446,0.037l7.399,0.205l-8.83-8.832
			C155.839,203.609,152.57,203.209,149.349,202.77z"/>
		<path fill="#FFFFFF" d="M240.008,213.12h8.605l-8.359-8.359c-2.641,0.23-5.303,0.436-7.988,0.615L240.008,213.12z"/>
		<path fill="#FFFFFF" d="M253.238,203.402l9.361,9.363l8.381-0.224l-10.15-10.151C258.33,202.752,255.799,203.09,253.238,203.402z"
			/>
		<path fill="#FFFFFF" d="M242.885,204.521l8.539,8.539l8.383-0.222l-9.133-9.133C248.104,204.004,245.506,204.275,242.885,204.521z
			"/>
		<path fill="#FFFFFF" d="M228.535,213.12h8.604l-7.572-7.572c-2.709,0.164-5.438,0.303-8.188,0.414L228.535,213.12z"/>
		<path fill="#FFFFFF" d="M194.117,213.12h8.605l-6.875-6.875c-2.968-0.054-5.92-0.136-8.852-0.246L194.117,213.12z"/>
		<path fill="#FFFFFF" d="M217.063,213.12h8.604l-7.056-7.058c-2.782,0.097-5.581,0.166-8.396,0.207L217.063,213.12z"/>
		<path fill="#FFFFFF" d="M273.775,212.469l8.383-0.223l-11.43-11.429c0.815-0.144,1.633-0.282,2.438-0.43l11.783,11.782
			l2.549-0.065c-0.306-2.315-0.621-4.629-0.949-6.938l-6.184-6.185c0.791-0.166,1.582-0.33,2.366-0.5l3.316,3.315
			c-0.199-1.33-0.389-2.662-0.598-3.987c-7.047,1.64-14.502,3.049-22.266,4.229c0.047-0.006,0.094-0.013,0.139-0.021
			L273.775,212.469z"/>
		<path fill="#FFFFFF" d="M198.763,206.293l6.827,6.826h8.604l-6.818-6.82c-1.209,0.012-2.417,0.023-3.63,0.023
			C202.08,206.323,200.419,206.311,198.763,206.293z"/>
		<polygon fill="#FFFFFF" points="207.658,111.932 207.213,114.355 207.232,114.375 207.676,111.951 		"/>
		<polygon fill="#FFFFFF" points="282.174,212.264 284.969,212.189 284.951,212.172 282.158,212.247 		"/>
		<path fill="#FFFFFF" d="M260.82,202.381l0.01,0.01c0.789-0.113,1.574-0.232,2.357-0.352
			C262.402,202.157,261.611,202.27,260.82,202.381z"/>
		<polygon fill="#FFFFFF" points="270.98,212.543 270.998,212.559 273.793,212.486 273.775,212.469 		"/>
		<path fill="#FFFFFF" d="M253.219,203.385c-0.854,0.102-1.715,0.197-2.572,0.295l0.027,0.027c0.857-0.099,1.713-0.199,2.564-0.306
			L253.219,203.385z"/>
		<polygon fill="#FFFFFF" points="259.822,212.855 262.615,212.782 262.6,212.766 259.807,212.84 		"/>
		<path fill="#FFFFFF" d="M240.211,204.717l0.043,0.043c0.879-0.076,1.756-0.156,2.631-0.238l-0.037-0.037
			C241.973,204.566,241.09,204.641,240.211,204.717z"/>
		<polygon fill="#FFFFFF" points="249.906,213.12 251.439,213.079 251.424,213.061 249.252,213.12 		"/>
		<path fill="#FFFFFF" d="M229.51,205.491l0.057,0.057c0.902-0.055,1.804-0.111,2.699-0.172l-0.051-0.051
			C231.316,205.383,230.412,205.436,229.51,205.491z"/>
		<path fill="#FFFFFF" d="M218.543,205.997l0.068,0.065c0.924-0.03,1.846-0.063,2.766-0.103l-0.063-0.063
			C220.395,205.934,219.469,205.965,218.543,205.997z"/>
		<path fill="#FFFFFF" d="M207.299,206.225l0.076,0.074c0.947-0.008,1.895-0.016,2.84-0.029l-0.072-0.07
			C209.197,206.213,208.248,206.217,207.299,206.225z"/>
		<path fill="#FFFFFF" d="M195.767,206.165l0.08,0.08c0.971,0.018,1.941,0.037,2.916,0.049l-0.078-0.078
			C197.709,206.204,196.74,206.182,195.767,206.165z"/>
		<path fill="#FFFFFF" d="M183.917,205.788l0.082,0.082c0.996,0.047,1.995,0.09,2.996,0.129l-0.082-0.082
			C185.913,205.877,184.915,205.834,183.917,205.788z"/>
		<path fill="#FFFFFF" d="M171.711,205.055l0.079,0.078c1.024,0.078,2.056,0.148,3.086,0.219l-0.08-0.082
			C173.766,205.202,172.735,205.131,171.711,205.055z"/>
		<path fill="#FFFFFF" d="M162.29,204.236c-1.076-0.106-2.142-0.226-3.208-0.34l0.072,0.071c1.067,0.117,2.134,0.234,3.21,0.343
			L162.29,204.236z"/>
		<polygon fill="#FFFFFF" points="167.988,212.805 170.938,212.885 170.934,212.881 167.984,212.801 		"/>
		<polygon fill="#FFFFFF" points="144.423,212.186 147.368,212.26 147.365,212.258 144.42,212.182 		"/>
		<path fill="#FFFFFF" d="M135.689,200.581c-1.18-0.209-2.354-0.424-3.516-0.646l0.023,0.022c1.168,0.226,2.343,0.443,3.528,0.658
			L135.689,200.581z"/>
		<path fill="#FFFFFF" d="M149.288,202.708c-1.118-0.152-2.23-0.308-3.336-0.467l0.055,0.055c1.108,0.162,2.222,0.322,3.343,0.475
			L149.288,202.708z"/>
		<polygon fill="#FFFFFF" points="156.198,212.486 159.141,212.561 159.138,212.559 156.194,212.482 		"/>
		<polygon fill="#FFFFFF" points="132.651,211.885 135.594,211.961 135.591,211.958 132.648,211.883 		"/>
	</g>
</g>
</svg>
